# xmcd
#
# Track frame offsets:
#	150
#	17445
#	31317
#	45987
#	62380
#	77482
#	92012
#	111730
#	127555
#	146070
#	162335
#	176595
#	187312
#	209140
#	224882
#
# Disc length: 3317 seconds
#
# Revision: 1
# Processed by: cddbd v1.5.1PL0 Copyright (c) Steve Scherf et al.
# Submitted via: CDex 1.50Beta5
#
DISCID=d60cf30f
DTITLE=ビリーバンバン - heritage from ’70s コンプリート・ベスト
DYEAR=1995
DGENRE=
TTITLE0=白いブランコ
TTITLE1=さよならをするために
TTITLE2=れんげ草
TTITLE3=目覚めた時には晴れていた
TTITLE4=愛すべき僕たち
TTITLE5=ミドリーヌ
TTITLE6=子供たちをよろしく
TTITLE7=白い風とすずらん
TTITLE8=やさしい雨
TTITLE9=風のように砂のように
TTITLE10=悲しみの中に
TTITLE11=コスモスのブーケ
TTITLE12=愛の休暇
TTITLE13=思い出を作ろう
TTITLE14=夜明け
EXTD=
EXTT0=
EXTT1=
EXTT2=
EXTT3=
EXTT4=
EXTT5=
EXTT6=
EXTT7=
EXTT8=
EXTT9=
EXTT10=
EXTT11=
EXTT12=
EXTT13=
EXTT14=
PLAYORDER=
